<svg xmlns="http://www.w3.org/2000/svg" viewBox="0 0 500 500">
  <style>
    .error-text { font: bold 80px sans-serif; fill: #06283D; }
    .sad-cloud { fill: #dff6ff; stroke: #06283D; stroke-width: 8; }
    .rain-drop { fill: #1E90FF; }
    .error-message { font: bold 24px sans-serif; fill: #06283D; }
  </style>
  
  <!-- Cloud shape -->
  <path class="sad-cloud" d="M135,220 C135,180 165,150 205,150 C235,150 260,170 270,195 C280,185 295,180 310,180 C345,180 375,210 375,245 C375,280 345,310 310,310 L205,310 C165,310 135,280 135,240 Z" />
  
  <!-- Sad face -->
  <circle cx="220" cy="220" r="15" fill="#06283D" />
  <circle cx="290" cy="220" r="15" fill="#06283D" />
  
  <path d="M220,270 Q255,250 290,270" stroke="#06283D" stroke-width="8" fill="none" />
  
  <!-- Rain drops -->
  <path class="rain-drop" d="M200,330 L210,360 Q215,370 205,370 Q195,370 200,360 Z" />
  <path class="rain-drop" d="M240,330 L250,360 Q255,370 245,370 Q235,370 240,360 Z" />
  <path class="rain-drop" d="M280,330 L290,360 Q295,370 285,370 Q275,370 280,360 Z" />
  
  <!-- Error text -->
  <text x="250" y="120" text-anchor="middle" class="error-text">404</text>
  <text x="250" y="420" text-anchor="middle" class="error-message">Location Not Found</text>
</svg>