<svg xmlns="http://www.w3.org/2000/svg" viewBox="0 0 200 200">
  <!-- Main cloud -->
  <path d="M45,80 C45,55 65,35 90,35 C110,35 125,45 135,60 C140,55 150,50 160,50 C180,50 195,65 195,85 C195,105 180,120 160,120 L65,120 C55,120 45,110 45,100 Z" 
        fill="#708090" stroke="#5F6A6A" stroke-width="2" />
  
  <!-- Rain drops -->
  <path d="M70,130 L80,160 Q85,170 75,170 Q65,170 70,160 Z" fill="#1E90FF" />
  <path d="M100,130 L110,160 Q115,170 105,170 Q95,170 100,160 Z" fill="#1E90FF" />
  <path d="M130,130 L140,160 Q145,170 135,170 Q125,170 130,160 Z" fill="#1E90FF" />
  
  <path d="M60,150 L70,180 Q75,190 65,190 Q55,190 60,180 Z" fill="#1E90FF" />
  <path d="M90,150 L100,180 Q105,190 95,190 Q85,190 90,180 Z" fill="#1E90FF" />
  <path d="M120,150 L130,180 Q135,190 125,190 Q115,190 120,180 Z" fill="#1E90FF" />
  <path d="M150,150 L160,180 Q165,190 155,190 Q145,190 150,180 Z" fill="#1E90FF" />
  
  <!-- Cloud details/shadows -->
  <path d="M90,35 C100,35 110,40 120,50 C125,45 135,40 145,40 C155,40 165,45 170,55" 
        fill="none" stroke="#5F6A6A" stroke-width="3" opacity="0.5" />
</svg>