<svg xmlns="http://www.w3.org/2000/svg" viewBox="0 0 200 200">
  <!-- Main cloud -->
  <path d="M45,80 C45,55 65,35 90,35 C110,35 125,45 135,60 C140,55 150,50 160,50 C180,50 195,65 195,85 C195,105 180,120 160,120 L65,120 C55,120 45,110 45,100 Z" 
        fill="#A9A9A9" stroke="#808080" stroke-width="2" />
  
  <!-- Snowflakes -->
  <!-- Snowflake 1 -->
  <g transform="translate(70, 150)">
    <circle cx="0" cy="0" r="5" fill="white" stroke="#E0E0E0" stroke-width="1" />
    <line x1="0" y1="-10" x2="0" y2="10" stroke="white" stroke-width="2" />
    <line x1="-8.66" y1="-5" x2="8.66" y2="5" stroke="white" stroke-width="2" />
    <line x1="-8.66" y1="5" x2="8.66" y2="-5" stroke="white" stroke-width="2" />
  </g>
  
  <!-- Snowflake 2 -->
  <g transform="translate(100, 140)">
    <circle cx="0" cy="0" r="5" fill="white" stroke="#E0E0E0" stroke-width="1" />
    <line x1="0" y1="-10" x2="0" y2="10" stroke="white" stroke-width="2" />
    <line x1="-8.66" y1="-5" x2="8.66" y2="5" stroke="white" stroke-width="2" />
    <line x1="-8.66" y1="5" x2="8.66" y2="-5" stroke="white" stroke-width="2" />
  </g>
  
  <!-- Snowflake 3 -->
  <g transform="translate(130, 155)">
    <circle cx="0" cy="0" r="5" fill="white" stroke="#E0E0E0" stroke-width="1" />
    <line x1="0" y1="-10" x2="0" y2="10" stroke="white" stroke-width="2" />
    <line x1="-8.66" y1="-5" x2="8.66" y2="5" stroke="white" stroke-width="2" />
    <line x1="-8.66" y1="5" x2="8.66" y2="-5" stroke="white" stroke-width="2" />
  </g>
  
  <!-- Snowflake 4 -->
  <g transform="translate(85, 170)">
    <circle cx="0" cy="0" r="5" fill="white" stroke="#E0E0E0" stroke-width="1" />
    <line x1="0" y1="-10" x2="0" y2="10" stroke="white" stroke-width="2" />
    <line x1="-8.66" y1="-5" x2="8.66" y2="5" stroke="white" stroke-width="2" />
    <line x1="-8.66" y1="5" x2="8.66" y2="-5" stroke="white" stroke-width="2" />
  </g>
  
  <!-- Snowflake 5 -->
  <g transform="translate(115, 175)">
    <circle cx="0" cy="0" r="5" fill="white" stroke="#E0E0E0" stroke-width="1" />
    <line x1="0" y1="-10" x2="0" y2="10" stroke="white" stroke-width="2" />
    <line x1="-8.66" y1="-5" x2="8.66" y2="5" stroke="white" stroke-width="2" />
    <line x1="-8.66" y1="5" x2="8.66" y2="-5" stroke="white" stroke-width="2" />
  </g>
  
  <!-- Cloud details/shadows -->
  <path d="M90,35 C100,35 110,40 120,50 C125,45 135,40 145,40 C155,40 165,45 170,55" 
        fill="none" stroke="#808080" stroke-width="3" opacity="0.5" />
</svg>